<?xml version="1.0" encoding="UTF-8"?>
<svg id="Layer_2" data-name="Layer 2" xmlns="http://www.w3.org/2000/svg" xmlns:xlink="http://www.w3.org/1999/xlink" viewBox="0 0 248.48 248.48">
  <defs>
    <style>
      .cls-1, .cls-2 {
        fill: #fff;
      }

      .cls-2, .cls-3, .cls-4 {
        fill-rule: evenodd;
      }

      .cls-3 {
        fill: url(#Gradiente_sem_nome_153);
        stroke: url(#Gradiente_sem_nome_153-2);
        stroke-miterlimit: 10;
        stroke-width: .25px;
      }

      .cls-4 {
        fill: #ad916c;
      }

      .cls-5 {
        fill: #8a1812;
      }
    </style>
    <linearGradient id="Gradiente_sem_nome_153" data-name="Gradiente sem nome 153" x1="35.26" y1="190.47" x2="213.83" y2="190.47" gradientUnits="userSpaceOnUse">
      <stop offset="0" stop-color="#fbc95b"/>
      <stop offset=".3" stop-color="#fbc95b"/>
      <stop offset=".64" stop-color="#fcc013"/>
      <stop offset=".69" stop-color="#f6b914"/>
      <stop offset=".77" stop-color="#e8a717"/>
      <stop offset=".86" stop-color="#d18a1c"/>
      <stop offset=".96" stop-color="#b16123"/>
      <stop offset="1" stop-color="#a14d27"/>
    </linearGradient>
    <linearGradient id="Gradiente_sem_nome_153-2" data-name="Gradiente sem nome 153" x1="35.06" y1="190.48" x2="214.02" y2="190.48" xlink:href="#Gradiente_sem_nome_153"/>
  </defs>
  <g id="Camada_1" data-name="Camada 1">
    <g>
      <path class="cls-4" d="m124.24,248.48c68.44,0,124.24-55.81,124.24-124.24S192.68,0,124.24,0,0,55.81,0,124.24s55.82,124.24,124.24,124.24Z"/>
      <path class="cls-2" d="m124.24,8.5C60.89,8.5,9.51,59.88,9.51,123.24s51.38,114.73,114.73,114.73,114.74-51.38,114.74-114.73S187.6,8.5,124.24,8.5h0Zm0,5.62c60.25,0,109.12,48.86,109.12,109.12s-48.86,109.12-109.12,109.12S15.12,183.49,15.12,123.24,63.99,14.12,124.24,14.12Z"/>
      <g>
        <path class="cls-1" d="m84.94,102.96h-4.16l-.91,2.96h-3l4.41-13.26h3.42l4.26,13.26h-3.19l-.82-2.96Zm-1.98-7.75h-.04l-1.58,5.51h2.98l-1.37-5.51Z"/>
        <path class="cls-1" d="m95.58,99.82c0-1.23-.55-1.56-1.16-1.56-.97,0-1.31.84-1.31,2.11v5.55h-3v-7.83c0-.95-.02-1.56-.08-2.07h2.74c.04.44.08.99.08,1.65h.04c.46-1.08,1.22-1.8,2.79-1.8,2.19,0,2.91,1.6,2.91,3.57v6.48h-3v-6.1Z"/>
        <path class="cls-1" d="m101.35,96.5c.78-.25,2.11-.63,3.19-.63,3.48,0,4.28,1.44,4.28,3.65v3.61c0,1.46.02,2.13.08,2.79h-2.74l-.08-1.37h-.04c-.13.61-1.29,1.52-2.72,1.52-1.84,0-3.06-1.2-3.06-3,0-3.31,3.86-3.32,4.9-3.32h.91c0-1.9-1.4-1.9-1.84-1.9-.76,0-1.58.17-2.76.87l-.13-2.22Zm4.73,4.65c-1.2,0-3.08.08-3.08,1.73,0,1.29,1.04,1.29,1.29,1.29.27,0,1.79-.04,1.79-2.45v-.57Z"/>
        <path class="cls-1" d="m110.97,91.67h3v14.25h-3v-14.25Z"/>
        <path class="cls-1" d="m116.25,91.67h3v2.66h-3v-2.66Zm0,4.35h3v9.9h-3v-9.9Z"/>
        <path class="cls-1" d="m127.33,98.51c-.8-.32-1.54-.53-2.41-.53-.78,0-1.12.38-1.12.72,0,.61.44.82,2.07,1.42,1.03.38,2.07,1.03,2.07,2.89,0,2.2-1.65,3.06-3.65,3.06-.87,0-2.2-.1-3.25-.48l.08-2.32c.72.44,1.63.68,2.47.68,1.41,0,1.5-.49,1.5-.93s-.78-.63-2.07-1.16c-1.04-.44-2.07-1.27-2.07-3.04,0-1.06.76-2.96,3.71-2.96,1.23,0,2.26.23,2.75.4l-.08,2.24Z"/>
        <path class="cls-1" d="m128.75,96.02h1.71v-2.03l2.93-.93v2.96h1.94v2.11h-1.94v4.54c0,.97.44,1.23,1.01,1.23.42,0,.68-.08.99-.21v2.11c-.3.11-1.12.27-2.09.27-1.56,0-2.91-.76-2.91-2.93v-5.02h-1.63v-2.11Z"/>
        <path class="cls-1" d="m137.61,96.5c.78-.25,2.11-.63,3.19-.63,3.48,0,4.28,1.44,4.28,3.65v3.61c0,1.46.02,2.13.08,2.79h-2.74l-.08-1.37h-.04c-.13.61-1.29,1.52-2.72,1.52-1.84,0-3.06-1.2-3.06-3,0-3.31,3.86-3.32,4.9-3.32h.91c0-1.9-1.4-1.9-1.84-1.9-.76,0-1.58.17-2.76.87l-.13-2.22Zm4.73,4.65c-1.2,0-3.08.08-3.08,1.73,0,1.29,1.04,1.29,1.29,1.29.27,0,1.79-.04,1.79-2.45v-.57Z"/>
        <path class="cls-1" d="m160.88,103.7c0,1.25.04,1.77.08,2.22h-2.85c-.04-.38-.08-.89-.08-1.58h-.04c-.3.61-.97,1.73-2.7,1.73-2.22,0-3.48-2.18-3.48-5.34,0-2.66.99-4.86,3.48-4.86,1.39,0,2.18.72,2.54,1.61h.04v-5.81h3v12.03Zm-4.5.21c1.23,0,1.5-1.79,1.5-2.93,0-1.58-.29-3.06-1.5-3.06-1.33,0-1.44,1.48-1.44,3.06,0,1.03.08,2.93,1.44,2.93Z"/>
        <path class="cls-1" d="m171.41,101.76h-5.83c0,1.18.76,2.26,2.45,2.26,1.03,0,2.05-.38,2.79-.78l.06,2.26c-.97.36-2.11.57-3.13.57-3.48,0-5.02-2.11-5.02-5.13,0-2.66,1.56-5.07,4.39-5.07.89,0,4.29,0,4.29,5.17v.72Zm-2.74-1.63c0-1.25-.32-2.43-1.56-2.43-1.54,0-1.54,1.9-1.54,2.43h3.1Z"/>
        <path class="cls-1" d="m43.11,116.66h3.34l2.34,9.67h.04l2.39-9.67h3.19l-4.01,13.26h-3.34l-3.95-13.26Z"/>
        <path class="cls-1" d="m55.25,120.5c.78-.25,2.11-.63,3.19-.63,3.48,0,4.28,1.44,4.28,3.65v3.61c0,1.46.02,2.13.08,2.79h-2.74l-.08-1.37h-.04c-.13.61-1.29,1.52-2.72,1.52-1.84,0-3.06-1.2-3.06-3,0-3.31,3.86-3.32,4.9-3.32h.91c0-1.9-1.4-1.9-1.84-1.9-.76,0-1.58.17-2.76.87l-.13-2.22Zm4.73,4.65c-1.2,0-3.08.08-3.08,1.73,0,1.29,1.04,1.29,1.29,1.29.27,0,1.79-.04,1.79-2.45v-.57Z"/>
        <path class="cls-1" d="m64.87,115.67h3v14.25h-3v-14.25Z"/>
        <path class="cls-1" d="m74.46,119.87c3.04,0,4.65,2.11,4.65,5.07s-1.61,5.13-4.65,5.13-4.65-2.13-4.65-5.13,1.62-5.07,4.65-5.07Zm0,8.15c1.04,0,1.54-1.14,1.54-3.08s-.49-3.02-1.54-3.02-1.54,1.08-1.54,3.02.49,3.08,1.54,3.08Z"/>
        <path class="cls-1" d="m80.96,122.09c0-.95-.02-1.56-.08-2.07h2.73c.02.59.06,1.2.08,1.79h.04c.61-1.06,1.03-1.94,2.75-1.94h.44v2.77c-.32-.08-.59-.11-1.01-.11-1.75,0-1.96,1.52-1.96,2.96v4.43h-3v-7.83Z"/>
        <path class="cls-1" d="m96.44,125.76h-5.83c0,1.18.76,2.26,2.45,2.26,1.03,0,2.05-.38,2.79-.78l.06,2.26c-.97.36-2.11.57-3.13.57-3.48,0-5.02-2.11-5.02-5.13,0-2.66,1.56-5.07,4.39-5.07.89,0,4.29,0,4.29,5.17v.72Zm-2.73-1.63c0-1.25-.32-2.43-1.56-2.43-1.54,0-1.54,1.9-1.54,2.43h3.1Z"/>
        <path class="cls-1" d="m104.1,122.51c-.8-.32-1.54-.53-2.41-.53-.78,0-1.12.38-1.12.72,0,.61.44.82,2.07,1.42,1.03.38,2.07,1.03,2.07,2.89,0,2.2-1.65,3.06-3.65,3.06-.88,0-2.21-.1-3.25-.48l.08-2.32c.72.44,1.63.68,2.47.68,1.41,0,1.5-.49,1.5-.93s-.78-.63-2.07-1.16c-1.04-.44-2.07-1.27-2.07-3.04,0-1.06.76-2.96,3.7-2.96,1.24,0,2.26.23,2.76.4l-.08,2.24Z"/>
        <path class="cls-1" d="m122.28,119.43h-.04l-2.98,10.49h-2.05l-2.87-10.49h-.04v10.49h-2.85v-13.26h4.69l2.15,8.53h.04l2.32-8.53h4.48v13.26h-2.85v-10.49Z"/>
        <path class="cls-1" d="m131.84,119.87c3.04,0,4.65,2.11,4.65,5.07s-1.61,5.13-4.65,5.13-4.65-2.13-4.65-5.13,1.62-5.07,4.65-5.07Zm0,8.15c1.04,0,1.54-1.14,1.54-3.08s-.49-3.02-1.54-3.02-1.54,1.08-1.54,3.02.49,3.08,1.54,3.08Z"/>
        <path class="cls-1" d="m138.34,115.67h3v5.81h.04c.36-.89,1.16-1.62,2.54-1.62,2.49,0,3.48,2.2,3.48,4.86,0,3.15-1.25,5.34-3.48,5.34-1.73,0-2.39-1.12-2.7-1.73h-.04c0,.68-.04,1.2-.08,1.58h-2.85c.04-.46.08-.97.08-2.22v-12.03Zm4.5,6.25c-1.22,0-1.5,1.48-1.5,3.06,0,1.14.27,2.93,1.5,2.93,1.37,0,1.44-1.9,1.44-2.93,0-1.58-.11-3.06-1.44-3.06Z"/>
        <path class="cls-1" d="m149.34,115.67h3v2.66h-3v-2.66Zm0,4.35h3v9.9h-3v-9.9Z"/>
        <path class="cls-1" d="m154.62,115.67h3v14.25h-3v-14.25Z"/>
        <path class="cls-1" d="m159.9,115.67h3v2.66h-3v-2.66Zm0,4.35h3v9.9h-3v-9.9Z"/>
        <path class="cls-1" d="m165.77,120.5c.78-.25,2.11-.63,3.19-.63,3.48,0,4.28,1.44,4.28,3.65v3.61c0,1.46.02,2.13.08,2.79h-2.74l-.08-1.37h-.04c-.13.61-1.29,1.52-2.72,1.52-1.84,0-3.06-1.2-3.06-3,0-3.31,3.86-3.32,4.9-3.32h.91c0-1.9-1.4-1.9-1.84-1.9-.76,0-1.58.17-2.76.87l-.13-2.22Zm4.73,4.65c-1.2,0-3.08.08-3.08,1.73,0,1.29,1.04,1.29,1.29,1.29.27,0,1.79-.04,1.79-2.45v-.57Zm-1.8-9.02h2.62l-1.9,2.77h-1.75l1.03-2.77Z"/>
        <path class="cls-1" d="m175.29,122.09c0-.95-.02-1.56-.08-2.07h2.74c.02.59.06,1.2.08,1.79h.04c.61-1.06,1.03-1.94,2.76-1.94h.44v2.77c-.32-.08-.59-.11-1.01-.11-1.75,0-1.96,1.52-1.96,2.96v4.43h-3v-7.83Z"/>
        <path class="cls-1" d="m182.78,115.67h3v2.66h-3v-2.66Zm0,4.35h3v9.9h-3v-9.9Z"/>
        <path class="cls-1" d="m192.37,119.87c3.04,0,4.65,2.11,4.65,5.07s-1.61,5.13-4.65,5.13-4.65-2.13-4.65-5.13,1.62-5.07,4.65-5.07Zm0,8.15c1.04,0,1.54-1.14,1.54-3.08s-.49-3.02-1.54-3.02-1.54,1.08-1.54,3.02.49,3.08,1.54,3.08Z"/>
        <path class="cls-1" d="m204.76,122.51c-.8-.32-1.54-.53-2.41-.53-.78,0-1.12.38-1.12.72,0,.61.44.82,2.07,1.42,1.03.38,2.07,1.03,2.07,2.89,0,2.2-1.65,3.06-3.65,3.06-.88,0-2.21-.1-3.25-.48l.08-2.32c.72.44,1.63.68,2.47.68,1.41,0,1.5-.49,1.5-.93s-.78-.63-2.07-1.16c-1.04-.44-2.07-1.27-2.07-3.04,0-1.06.76-2.96,3.7-2.96,1.24,0,2.26.23,2.76.4l-.08,2.24Z"/>
        <path class="cls-1" d="m61.73,140.66h4.24c2.83,0,4.54,1.35,4.54,4.22,0,2.26-1.25,4.2-4.16,4.2h-1.5v4.84h-3.12v-13.26Zm3.99,6.1c.97,0,1.67-.67,1.67-1.9,0-1.31-.61-1.88-1.84-1.88h-.82v3.78h.99Z"/>
        <path class="cls-1" d="m80.18,149.76h-5.83c0,1.18.76,2.26,2.45,2.26,1.03,0,2.05-.38,2.79-.78l.06,2.26c-.97.36-2.11.57-3.13.57-3.48,0-5.02-2.11-5.02-5.13,0-2.66,1.56-5.07,4.39-5.07.89,0,4.29,0,4.29,5.17v.72Zm-2.73-1.63c0-1.25-.32-2.43-1.56-2.43-1.54,0-1.54,1.9-1.54,2.43h3.1Z"/>
        <path class="cls-1" d="m87.84,146.51c-.8-.32-1.54-.53-2.41-.53-.78,0-1.12.38-1.12.72,0,.61.44.82,2.07,1.42,1.03.38,2.07,1.03,2.07,2.89,0,2.2-1.65,3.06-3.65,3.06-.88,0-2.21-.1-3.25-.48l.08-2.32c.72.44,1.63.68,2.47.68,1.41,0,1.5-.49,1.5-.93s-.78-.63-2.07-1.16c-1.04-.44-2.07-1.27-2.07-3.04,0-1.06.76-2.96,3.7-2.96,1.24,0,2.26.23,2.76.4l-.08,2.24Z"/>
        <path class="cls-1" d="m95.93,146.51c-.8-.32-1.54-.53-2.41-.53-.78,0-1.12.38-1.12.72,0,.61.44.82,2.07,1.42,1.03.38,2.07,1.03,2.07,2.89,0,2.2-1.65,3.06-3.65,3.06-.88,0-2.21-.1-3.25-.48l.08-2.32c.72.44,1.63.68,2.47.68,1.41,0,1.5-.49,1.5-.93s-.78-.63-2.07-1.16c-1.04-.44-2.07-1.27-2.07-3.04,0-1.06.76-2.96,3.7-2.96,1.24,0,2.26.23,2.76.4l-.08,2.24Z"/>
        <path class="cls-1" d="m102.54,143.87c3.04,0,4.65,2.11,4.65,5.07s-1.61,5.13-4.65,5.13-4.65-2.13-4.65-5.13,1.62-5.07,4.65-5.07Zm0,8.15c1.04,0,1.54-1.14,1.54-3.08s-.49-3.02-1.54-3.02-1.54,1.08-1.54,3.02.49,3.08,1.54,3.08Z"/>
        <path class="cls-1" d="m109.73,144.5c.78-.25,2.11-.63,3.19-.63,3.48,0,4.27,1.44,4.27,3.65v3.61c0,1.46.02,2.13.08,2.79h-2.73l-.08-1.37h-.04c-.13.61-1.29,1.52-2.72,1.52-1.84,0-3.06-1.2-3.06-3,0-3.31,3.86-3.32,4.9-3.32h.91c0-1.9-1.41-1.9-1.84-1.9-.76,0-1.58.17-2.75.87l-.13-2.22Zm4.73,4.65c-1.2,0-3.08.08-3.08,1.73,0,1.29,1.04,1.29,1.29,1.29.27,0,1.79-.04,1.79-2.45v-.57Z"/>
        <path class="cls-1" d="m129.27,149.59c0,2.53-.87,4.56-3.72,4.56-.7,0-1.62-.19-2.09-.38l.11-2.53c.34.11.67.25,1.08.25,1.12,0,1.5-.8,1.5-1.9v-8.93h3.12v8.93Z"/>
        <path class="cls-1" d="m139.86,151.85c0,.95.02,1.56.08,2.07h-2.74c-.04-.44-.08-.99-.08-1.65h-.04c-.46,1.08-1.22,1.8-2.79,1.8-2.19,0-2.91-1.6-2.91-3.57v-6.48h3v6.1c0,1.24.55,1.56,1.16,1.56.97,0,1.31-.84,1.31-2.11v-5.55h3v7.83Z"/>
        <path class="cls-1" d="m141.95,146.09c0-.95-.02-1.56-.08-2.07h2.73c.02.59.06,1.2.08,1.79h.04c.61-1.06,1.03-1.94,2.75-1.94h.44v2.77c-.32-.08-.59-.11-1.01-.11-1.75,0-1.96,1.52-1.96,2.96v4.43h-3v-7.83Z"/>
        <path class="cls-1" d="m149.43,144.02h3v9.9h-3v-9.9Zm1.04-3.89h2.62l-1.9,2.77h-1.75l1.03-2.77Z"/>
        <path class="cls-1" d="m163.44,151.7c0,1.25.04,1.77.08,2.22h-2.85c-.04-.38-.08-.89-.08-1.58h-.04c-.3.61-.97,1.73-2.7,1.73-2.22,0-3.48-2.18-3.48-5.34,0-2.66.99-4.86,3.48-4.86,1.39,0,2.18.72,2.54,1.62h.04v-5.81h3v12.03Zm-4.5.21c1.23,0,1.5-1.79,1.5-2.93,0-1.58-.29-3.06-1.5-3.06-1.33,0-1.44,1.48-1.44,3.06,0,1.03.08,2.93,1.44,2.93Z"/>
        <path class="cls-1" d="m165.62,139.67h3v2.66h-3v-2.66Zm0,4.35h3v9.9h-3v-9.9Z"/>
        <path class="cls-1" d="m177.8,153.65c-.87.23-1.77.42-2.72.42-3.82,0-4.67-3.19-4.67-5,0-3.04,1.75-5.21,4.9-5.21.99,0,1.52.25,2.39.48l-.15,2.26c-.55-.21-1.12-.42-1.75-.42-2.28,0-2.28,2.51-2.28,2.89,0,2.09,1.29,2.75,2.43,2.75.63,0,1.2-.23,1.75-.44l.1,2.26Z"/>
        <path class="cls-1" d="m179.93,144.5c.78-.25,2.11-.63,3.19-.63,3.48,0,4.27,1.44,4.27,3.65v3.61c0,1.46.02,2.13.08,2.79h-2.73l-.08-1.37h-.04c-.13.61-1.29,1.52-2.72,1.52-1.84,0-3.06-1.2-3.06-3,0-3.31,3.86-3.32,4.9-3.32h.91c0-1.9-1.41-1.9-1.84-1.9-.76,0-1.58.17-2.75.87l-.13-2.22Zm4.73,4.65c-1.2,0-3.08.08-3.08,1.73,0,1.29,1.04,1.29,1.29,1.29.27,0,1.79-.04,1.79-2.45v-.57Z"/>
      </g>
      <path class="cls-3" d="m35.26,186.11c6.12,8.62,13.45,16.33,21.75,22.86,0,0,30.69-6.78,69.61-6.78s64.85,6.78,64.85,6.78c8.57-6.74,16.12-14.74,22.35-23.71,0,0-34.78-13.28-87.11-13.28s-91.46,14.13-91.46,14.13Z"/>
      <g>
        <path class="cls-5" d="m80.21,186.24c-.56-.23-1.49-.67-3.06-.49-2.29.26-3.54,2.29-3.2,5.23.33,2.84,2.2,4.57,4.37,4.31,1.67-.19,2.58-.93,2.89-1.12l.48,3.03c-.56.26-1.73.73-3.59.94-3.98.46-7.12-2.2-7.66-6.81-.62-5.34,2.72-7.88,5.69-8.22,2.17-.25,3.33.1,3.92.27l.16,2.86Z"/>
        <path class="cls-5" d="m82.58,188.72c-.09-1.05-.17-1.71-.29-2.27l3.01-.27c.08.65.18,1.31.26,1.96h.04c.57-1.24.94-2.24,2.84-2.41l.48-.04.27,3.05c-.36-.05-.66-.07-1.12-.03-1.92.17-2.01,1.87-1.86,3.46l.43,4.87-3.31.29-.77-8.62Z"/>
        <path class="cls-5" d="m100.02,191.47l-6.43.42c.08,1.3,1,2.44,2.87,2.32,1.13-.07,2.24-.57,3.02-1.06l.23,2.49c-1.04.47-2.28.78-3.42.85-3.83.25-5.68-1.96-5.9-5.29-.19-2.93,1.35-5.71,4.47-5.91.98-.06,4.73-.31,5.11,5.39l.05.8Zm-3.13-1.6c-.09-1.38-.53-2.66-1.89-2.57-1.7.11-1.56,2.21-1.52,2.79l3.42-.22Z"/>
        <path class="cls-5" d="m111.86,193.14c.05,1.38.12,1.95.18,2.45l-3.15.12c-.06-.42-.12-.98-.15-1.74h-.04c-.31.69-1,1.95-2.91,2.02-2.45.09-3.93-2.27-4.06-5.75-.11-2.94.89-5.41,3.64-5.52,1.53-.06,2.44.71,2.88,1.68h.04s-.24-6.42-.24-6.42l3.32-.12.5,13.28Zm-4.96.42c1.36-.05,1.58-2.04,1.54-3.29-.07-1.74-.44-3.37-1.79-3.32-1.47.06-1.53,1.7-1.47,3.44.04,1.13.21,3.23,1.72,3.17Z"/>
        <path class="cls-5" d="m123.43,190.84l-6.45.07c.02,1.3.87,2.49,2.74,2.47,1.13-.01,2.26-.45,3.08-.9l.09,2.5c-1.07.41-2.32.66-3.46.67-3.84.04-5.57-2.27-5.61-5.6-.03-2.94,1.66-5.63,4.79-5.66.99-.01,4.75-.05,4.81,5.66v.8Zm-3.04-1.77c-.02-1.39-.39-2.68-1.75-2.67-1.7.02-1.68,2.12-1.67,2.71l3.42-.04Z"/>
        <path class="cls-5" d="m131.47,188.78c.02-1.37-.59-1.73-1.26-1.74-1.07-.01-1.46.91-1.48,2.31l-.08,6.13-3.32-.04.11-8.65c.01-1.05,0-1.72-.06-2.29l3.02.04c.04.48.07,1.09.06,1.83h.04c.52-1.19,1.37-1.98,3.11-1.96,2.41.03,3.19,1.8,3.16,3.99l-.09,7.16-3.32-.04.08-6.74Z"/>
        <path class="cls-5" d="m144.67,195.59c-.97.22-1.97.4-3.02.36-4.22-.14-5.04-3.7-4.98-5.69.11-3.36,2.12-5.68,5.61-5.57,1.09.04,1.67.33,2.63.61l-.25,2.49c-.6-.25-1.22-.5-1.91-.53-2.52-.08-2.61,2.69-2.62,3.11-.08,2.31,1.33,3.09,2.58,3.13.69.02,1.33-.21,1.95-.42l.02,2.5Z"/>
        <path class="cls-5" d="m146.83,185.04l3.32.16-.53,10.93-3.32-.16.53-10.93Zm.23-4.8l3.32.16-.14,2.94-3.31-.16.14-2.94Z"/>
        <path class="cls-5" d="m153.41,185.9c.88-.22,2.37-.54,3.56-.46,3.83.25,4.61,1.9,4.45,4.33l-.26,3.98c-.1,1.61-.13,2.35-.12,3.09l-3.02-.2v-1.51s-.03,0-.03,0c-.19.66-1.53,1.58-3.1,1.48-2.03-.13-3.29-1.54-3.16-3.53.24-3.65,4.49-3.39,5.64-3.32l1.01.07c.14-2.1-1.41-2.2-1.9-2.23-.84-.05-1.75.08-3.1.77v-2.46Zm4.88,5.47c-1.32-.09-3.4-.14-3.52,1.69-.09,1.42,1.06,1.5,1.33,1.52.29.02,1.97.09,2.14-2.57l.04-.63Z"/>
        <path class="cls-5" d="m173.06,195.39c-.12,1.38-.13,1.95-.13,2.45l-3.14-.27c0-.42,0-.99.07-1.74h-.04c-.39.64-1.23,1.81-3.14,1.64-2.45-.21-3.62-2.74-3.32-6.21.25-2.93,1.55-5.26,4.29-5.02,1.53.13,2.34,1,2.65,2.02h.04s.56-6.4.56-6.4l3.3.29-1.15,13.24Zm-4.98-.2c1.36.12,1.82-1.82,1.93-3.08.15-1.74-.02-3.4-1.36-3.51-1.46-.13-1.73,1.49-1.88,3.23-.1,1.13-.2,3.23,1.31,3.36Z"/>
        <path class="cls-5" d="m181.11,187.54c3.34.36,4.86,2.87,4.51,6.13-.36,3.3-2.39,5.44-5.73,5.08-3.34-.36-4.86-2.89-4.5-6.19.35-3.26,2.38-5.38,5.72-5.02Zm-.98,8.96c1.15.12,1.83-1.07,2.06-3.2.23-2.13-.18-3.38-1.33-3.5-1.15-.12-1.82,1.01-2.05,3.13-.23,2.13.17,3.44,1.32,3.57Z"/>
      </g>
      <g>
        <g>
          <path class="cls-1" d="m107.77,44.39c-4.7.76-8.91,1.67-12.66,2.68.02.17.03.33.05.5,3.52-1.04,8.23-2.33,12.61-3.19"/>
          <path class="cls-1" d="m105.8,49.23c-3.92.32-7.44.72-10.57,1.2,0,.15,0,.29-.01.44,3.13-.61,6.65-1.16,10.59-1.64"/>
          <path class="cls-1" d="m92.08,47.94c-15.99,4.89-22.43,11.72-21.37,16.27.75,3.2,4.82,5.53,11.71,5.74.13-.12.25-.24.38-.36-.01,0-.03,0-.04,0-6.66-.21-10.23-2.53-10.95-5.63-1.03-4.4,4.84-10.79,20.3-15.51l-.03-.5Zm16.62,16.1s-.08.03-.13.05c.04-.02.08-.03.13-.05m-.13.05c-6.84,2.78-13.33,4.25-18.41,5l-.19.36c5.26-.77,11.5-2.47,18.6-5.37m-18.88,5.07c-2.14.3-4.11.44-5.9.44-.23,0-.46,0-.69,0-.13.12-.25.24-.38.36.25,0,.51,0,.77,0,1.83,0,3.84-.14,6.02-.44.06-.12.12-.24.18-.36"/>
          <path class="cls-1" d="m92.03,51.22c-15.49,3.52-20.34,8.69-18.55,12.44,1.04,2.19,3.14,3.06,5.83,3.06,2.1,0,4.57-.54,7.17-1.4.16-.21.31-.43.45-.64-2.98.94-5.55,1.43-7.63,1.43-2.73,0-4.58-.84-5.31-2.6-1.54-3.73,2.97-8.56,18-11.98l.03-.32Zm16.73,2.54c-5.69,3.65-11.04,6.54-15.76,8.62-.04.13-.08.25-.13.38,6.71-3.12,13.17-7.21,15.89-8.99m-16.37,8.88c-1.76.75-3.43,1.39-4.99,1.9-.15.21-.3.43-.46.63,1.74-.6,3.53-1.33,5.32-2.14.05-.13.09-.26.13-.4"/>
          <path class="cls-1" d="m87.73,40.63c-6.04,0-14.46,12.09-15.93,15.92,1.41-3.67,9.79-15.25,15.67-15.25.88,0,1.71.26,2.45.85,1.14.91,1.96,3,2.16,5.79.08,1.1.06,2.31-.08,3.6-.42,3.94-1.92,8.6-5.07,13.15.15-.05.3-.1.46-.15,3.33-4.73,5.95-10.83,5.12-16.98-.39-2.89-1.07-5.09-2.25-6.04-.77-.61-1.62-.89-2.53-.89m-.79,24.54c-.15.05-.3.1-.46.15-1.05,1.45-2.28,2.88-3.69,4.26.1,0,.2,0,.31,0,1.27-1.23,2.59-2.73,3.84-4.42m-4.52,4.78c-.99.95-2.07,1.87-3.25,2.76,1-.58,2.24-1.52,3.55-2.76-.1,0-.2,0-.3,0"/>
          <path class="cls-1" d="m82.8,69.59c-.12.12-.25.24-.38.36.1,0,.2,0,.3,0,.13-.12.25-.24.38-.36-.1,0-.2,0-.31,0"/>
          <path class="cls-1" d="m87.39,64.54c-.15.05-.31.1-.46.15-.15.21-.3.43-.45.64.15-.05.3-.1.45-.15.15-.21.31-.42.46-.63"/>
          <path class="cls-1" d="m84.77,36.78c-6.57,0-14.53,4.33-19.72,9.53,4.3-4.2,12.59-8.97,19.35-8.97,2.53,0,4.84.67,6.65,2.29,2.44,2.19,5.37,10.8,1.34,23.01.2-.09.41-.17.61-.26,1.33-3.96,2.08-7.94,2.22-11.51l-.06-.43s.05,0,.07-.01c.03-.99,0-1.94-.07-2.85l-.05-.5c-.37-3.61-1.54-6.52-3.58-8.14-1.89-1.5-4.22-2.15-6.77-2.15"/>
          <path class="cls-1" d="m95.11,47.07h0l.05.5c-.01-.17-.03-.34-.05-.5"/>
          <path class="cls-1" d="m95.23,50.42s-.05,0-.07.01l.06.43c0-.15.01-.3.01-.44"/>
          <path class="cls-1" d="m92.87,62.75c-.2.1-.41.19-.61.28-.67,1.96-1.51,4-2.56,6.13.12-.02.25-.03.37-.05.03,0,.07-.01.1-.02,1.06-2.06,1.96-4.2,2.7-6.34m-2.89,6.71c-.16.02-.31.05-.47.07-1.08,2.15-2.38,4.38-3.92,6.67,1.67-2.07,3.13-4.36,4.38-6.74"/>
          <path class="cls-1" d="m90.17,69.1s-.07.01-.1.02c-.12.02-.25.04-.37.05-.06.12-.12.24-.18.36.15-.02.31-.04.47-.07.06-.12.13-.24.19-.36"/>
          <path class="cls-1" d="m93,62.38c-.2.09-.41.18-.61.26-.04.13-.09.26-.13.4.2-.09.41-.19.61-.28.04-.13.09-.25.13-.38"/>
        </g>
        <g>
          <path class="cls-1" d="m113.4,61.15c-2.59-.26-4.34-1.83-4.34-4.38,0-3.95,3.98-5.18,7.31-5.18h1.02v-.75c0-1.71-.63-2.76-2.79-2.94-1.25-.1-2.85.22-4.07,1.05l-.16-2.13c.95-.63,2.95-1.35,4.8-1.35,4.07,0,5.54,2.04,5.54,5.24v8.71c-2.56,1.55-5.28,1.91-7.31,1.71Zm3.98-7.58h-.51c-2.13,0-4.49.48-4.49,2.94,0,1.32.88,2.04,2.19,2.22,1.52.2,2.81-.42,2.81-.42v-4.73Zm11.84,7.58c-2.3.17-3.81-.57-3.81-.57v4.29l-3.47,1.52v-19.41s2.86-2.09,7.19-1.49c4.33.59,5.27,4.37,5.27,7.76,0,3.21-.85,7.58-5.18,7.91Zm-1.08-13.33c-1.28-.24-2.74.23-2.74.23v9.86s1.05.85,2.71.66c2.29-.26,2.64-3.63,2.64-5.33s-.1-4.94-2.61-5.42Zm7.46,13v-13.5l3.48-1.54v15.04h-3.48Zm19.69-15.34c-1.93-.06-3.67.6-4.88,1.24-.59-.66-1.46-1.14-2.76-1.24-4.33-.31-7.07,1.79-7.07,1.79v13.55h3.48v-12.65s.56-.24,2.05-.31c1.91-.09,2.11,1.45,2.11,3.05v9.92h3.42v-9.47c0-.52.04-1.7-.3-2.87.43-.21,1.33-.58,2.4-.63,1.91-.09,2.11,1.36,2.11,3.05v9.92h3.42v-9.47c0-1.15.21-5.75-3.98-5.87Zm8.69,8.66c0,2.28,1.02,4.58,3.71,4.58,2.12,0,3.81-.71,3.81-.71l.18,2.3c-1.32.54-2.9.84-4.31.84-4.85,0-6.8-3.42-6.8-7.91,0-3.87,1.86-7.76,5.99-7.76,4.37,0,5.69,3.95,5.69,7.58v1.08h-8.27Zm2.61-6.32c-1.92,0-2.61,2.61-2.61,4.34h5c0-1.74-.42-4.34-2.4-4.34Zm13.27,13.33c-4.58,0-6.62-3.68-6.62-7.91,0-4.49,2.67-7.76,6.83-7.76,1.14,0,2.19.27,3.21.66l-.14,2.2s-1.66-.19-2.55-.1c-2.92.27-3.69,2.64-3.69,5s.79,4.92,3.84,5.15c.87.07,2.55-.18,2.55-.18l.14,2.27c-1.17.36-2.34.66-3.56.66Zm-42.51-20.69c-1.07,0-1.94.87-1.94,1.95s.87,1.94,1.94,1.94,1.94-.87,1.94-1.94-.87-1.95-1.94-1.95Z"/>
          <g>
            <path class="cls-1" d="m167.08,68.58c0,.46-.17.8-.51,1.04-.31.22-.75.33-1.32.33-.6,0-1.08-.09-1.41-.27v-4.36c.33-.18.78-.27,1.36-.27s.98.12,1.29.35c.29.22.43.51.43.88,0,.3-.1.55-.29.75-.16.17-.36.28-.6.33h0c.26.07.49.2.69.39.24.24.36.51.36.82Zm-1-2.24c0-.52-.29-.79-.87-.79-.19,0-.36.03-.53.08v1.54h.27c.41,0,.7-.06.88-.2.17-.13.25-.34.25-.64Zm.12,2.23c0-.66-.42-.98-1.25-.96h-.27v1.71c.15.06.33.09.55.09.65,0,.97-.28.97-.84Z"/>
            <path class="cls-1" d="m171.05,69.88h-.98l-1.36-2.16v2.16h-.87v-4.56c.35-.18.78-.27,1.3-.27.58,0,1.02.13,1.32.38.3.25.44.61.44,1.07,0,.36-.12.65-.35.88-.24.23-.54.36-.92.38h0s1.42,2.13,1.42,2.13Zm-1.01-3.35c0-.34-.07-.59-.21-.74-.14-.16-.37-.24-.69-.24-.17,0-.31.03-.43.08v1.87c.06.02.17.03.32.03.67,0,1.01-.33,1.01-1Z"/>
            <path class="cls-1" d="m175.33,69.88h-.91l-.37-1.23h-1.54l-.38,1.23h-.79l1.58-4.76h.83l1.57,4.76Zm-1.4-1.73l-.49-1.68c-.07-.24-.11-.43-.12-.58h-.01c-.02.12-.07.32-.13.58l-.51,1.68h1.27Z"/>
            <path class="cls-1" d="m178.45,68.49c0,.42-.14.77-.43,1.05-.29.27-.65.41-1.09.41-.51,0-.9-.09-1.18-.27l.21-.62c.22.15.49.22.8.22.24,0,.42-.07.56-.2s.2-.31.2-.53c0-.18-.06-.33-.17-.45-.11-.12-.3-.24-.57-.35-.66-.27-.98-.71-.98-1.3,0-.39.13-.72.39-.99.26-.27.61-.41,1.04-.41s.79.09,1.05.27l-.19.54c-.23-.14-.47-.21-.73-.21-.22,0-.38.06-.5.19-.12.12-.18.29-.18.51,0,.19.07.35.21.48.1.1.27.2.51.3.71.3,1.07.76,1.07,1.38Z"/>
            <path class="cls-1" d="m180.16,69.88h-.89v-4.76h.89v4.76Z"/>
            <path class="cls-1" d="m183.37,69.88h-2.2v-4.76h.89v4.18h1.32v.59Z"/>
          </g>
        </g>
      </g>
    </g>
  </g>
</svg>