<svg width="374" height="87" viewBox="0 0 374 87" fill="none" xmlns="http://www.w3.org/2000/svg">
<path d="M29.1755 41.6594H45.7992V57.7391H29.1755V41.6594Z" fill="url(#paint0_linear_121_9826)"/>
<path d="M0 12.2938V87H45.7992V72.3459H14.5223V27.0542H60.4531V87H74.9613V12.2938H0Z" fill="url(#paint1_linear_121_9826)"/>
<path d="M86.8986 0H67.7453V6.26564H80.4212V18.5595H86.8986V0Z" fill="url(#paint2_linear_121_9826)"/>
<path d="M130.068 43.042V82.1933H121.146V68.7963C118.802 69.3029 116.525 69.5561 114.315 69.5561C112.064 69.5561 110.102 69.3628 108.427 68.9763C106.753 68.5897 105.266 67.9632 103.967 67.0967C102.681 66.2302 101.636 65.0905 100.832 63.6774C100.028 62.2511 99.4256 60.5181 99.0237 58.4786C98.6218 56.439 98.4209 54.0396 98.4209 51.2802C98.4209 48.934 98.5616 46.8612 98.8429 45.0616C99.1242 43.2619 99.5662 41.6823 100.169 40.3226C100.772 38.9629 101.515 37.8165 102.399 36.8834C103.297 35.9502 104.389 35.1971 105.675 34.6239C106.96 34.0373 108.387 33.6174 109.954 33.3641C111.522 33.1109 113.323 32.9842 115.359 32.9842C117.958 32.9842 120.53 33.2575 123.075 33.804C125.62 34.3506 127.851 35.1771 129.766 36.2835C129.967 38.563 130.068 40.8158 130.068 43.042ZM121.146 45.6614C121.146 43.7952 121.073 42.2022 120.925 40.8825C119.559 40.2559 117.704 39.9427 115.359 39.9427C114.301 39.9427 113.35 40.056 112.506 40.2826C111.676 40.5092 110.986 40.8025 110.437 41.1624C109.887 41.509 109.412 41.9889 109.01 42.6021C108.622 43.202 108.32 43.7885 108.106 44.3617C107.905 44.9216 107.744 45.6414 107.624 46.5212C107.516 47.3877 107.449 48.1475 107.423 48.8007C107.396 49.4539 107.382 50.2804 107.382 51.2802C107.382 52.4133 107.389 53.3131 107.403 53.9796C107.429 54.6328 107.503 55.4193 107.624 56.3391C107.744 57.2455 107.912 57.9587 108.126 58.4786C108.354 58.9851 108.675 59.5383 109.09 60.1382C109.519 60.7248 110.041 61.1713 110.658 61.4779C111.274 61.7845 112.037 62.0445 112.948 62.2578C113.873 62.4577 114.937 62.5577 116.143 62.5577C117.817 62.5577 119.485 62.2977 121.146 61.7779V45.6614Z" fill="#FDFEFF"/>
<path d="M137.293 56.1391V33.4641H146.194V55.3393C146.194 56.2324 146.221 56.9922 146.275 57.6188C146.342 58.2453 146.462 58.8452 146.637 59.4184C146.824 59.9783 147.079 60.4382 147.4 60.7981C147.735 61.1447 148.157 61.4513 148.666 61.7179C149.188 61.9845 149.818 62.1778 150.555 62.2977C151.305 62.4044 152.189 62.4577 153.207 62.4577C155.457 62.4577 157.279 62.1378 158.672 61.4979C158.82 60.1782 158.893 58.5852 158.893 56.719V33.4641H167.754V59.4984C167.754 61.9378 167.654 64.1907 167.453 66.2569C163.314 68.4564 157.996 69.5561 151.499 69.5561C150.093 69.5561 148.8 69.4828 147.621 69.3362C146.456 69.2029 145.424 69.0096 144.527 68.7563C143.629 68.503 142.826 68.1764 142.116 67.7765C141.406 67.3766 140.796 66.95 140.287 66.4968C139.791 66.0436 139.356 65.5104 138.981 64.8972C138.619 64.2706 138.331 63.6508 138.117 63.0376C137.903 62.4244 137.729 61.7179 137.595 60.918C137.474 60.1182 137.394 59.3584 137.354 58.6385C137.313 57.9054 137.293 57.0722 137.293 56.1391Z" fill="#FDFEFF"/>
<path d="M187.307 69.5561C182.458 69.5561 178.949 68.6297 176.779 66.7768C174.609 64.9105 173.523 62.0511 173.523 58.1986C173.523 54.9594 174.307 52.3999 175.874 50.5203C177.442 48.6408 179.96 47.4277 183.429 46.8811C185.841 46.4946 189.658 46.1946 194.883 45.9813C194.883 43.9151 194.367 42.4088 193.335 41.4623C192.304 40.5026 190.629 40.0227 188.312 40.0227C184.709 40.0227 180.496 40.3293 175.673 40.9425L174.95 34.3439C180.268 33.4375 184.95 32.9842 188.995 32.9842C190.696 32.9842 192.23 33.0842 193.597 33.2842C194.963 33.4841 196.282 33.844 197.555 34.3639C198.841 34.8838 199.913 35.5636 200.77 36.4035C201.627 37.2433 202.31 38.343 202.819 39.7027C203.342 41.0624 203.603 42.6421 203.603 44.4417V59.4984C203.603 61.7245 203.502 63.9774 203.302 66.2569C199.511 68.4564 194.179 69.5561 187.307 69.5561ZM194.883 57.0789V51.7801C194.695 51.7934 194.253 51.8201 193.556 51.86C192.86 51.8867 192.364 51.9067 192.069 51.92C191.775 51.9334 191.319 51.9667 190.703 52.02C190.1 52.06 189.611 52.1067 189.236 52.16C188.861 52.2 188.433 52.26 187.95 52.3399C187.468 52.4066 187.026 52.4866 186.624 52.5799C185.512 52.8465 184.662 53.1598 184.072 53.5197C183.483 53.8796 183.034 54.4195 182.726 55.1393C182.431 55.8592 182.284 56.8389 182.284 58.0787C182.284 59.8649 182.773 61.1047 183.751 61.7978C184.742 62.4777 186.276 62.8176 188.352 62.8176C191.058 62.8176 193.161 62.4977 194.661 61.8578C194.809 60.5381 194.883 58.9451 194.883 57.0789Z" fill="#FDFEFF"/>
<path d="M219.677 45.8214V69.0762H210.795V43.042C210.795 40.8158 210.896 38.563 211.097 36.2835C215.263 34.084 220.608 32.9842 227.131 32.9842C228.94 32.9842 230.554 33.1042 231.974 33.3441C233.394 33.5708 234.599 33.884 235.59 34.2839C236.582 34.6838 237.432 35.2104 238.142 35.8636C238.866 36.5168 239.435 37.19 239.85 37.8831C240.265 38.5763 240.587 39.4161 240.815 40.4026C241.056 41.389 241.21 42.3355 241.277 43.242C241.357 44.1351 241.397 45.1882 241.397 46.4013V69.0762H232.516V47.2011C232.516 46.3079 232.483 45.5548 232.416 44.9416C232.349 44.3151 232.221 43.7152 232.034 43.142C231.86 42.5688 231.605 42.1089 231.27 41.7623C230.949 41.4024 230.527 41.0891 230.005 40.8225C229.482 40.5559 228.846 40.3693 228.096 40.2626C227.346 40.1426 226.455 40.0827 225.423 40.0827C223.106 40.0827 221.264 40.4026 219.898 41.0424C219.75 42.3621 219.677 43.9551 219.677 45.8214Z" fill="#FDFEFF"/>
<path d="M251.537 24.846L260.438 23.4063V33.4641H267.631V40.2026H260.438V58.6186C260.438 60.0982 260.766 61.158 261.423 61.7978C262.092 62.4244 263.177 62.7376 264.678 62.7376C265.669 62.7376 266.674 62.6977 267.692 62.6177L268.375 68.9363C266.057 69.3495 264.015 69.5561 262.246 69.5561C258.523 69.5561 255.803 68.7363 254.089 67.0967C252.387 65.457 251.537 62.9309 251.537 59.5184V40.2026H245.69V33.4641H251.537V24.846Z" fill="#FDFEFF"/>
<path d="M301.216 39.4028L284.86 61.8578H301.336V69.0762H275.898C274.746 69.0762 273.842 68.8163 273.186 68.2964C272.543 67.7632 272.221 67.05 272.221 66.1569C272.221 65.2104 272.617 64.184 273.407 63.0776L289.883 40.3826H273.608V33.4641H298.724C299.849 33.4641 300.74 33.7307 301.397 34.2639C302.053 34.7838 302.381 35.4903 302.381 36.3835C302.381 37.3166 301.993 38.323 301.216 39.4028Z" fill="#FDFEFF"/>
<path d="M321.255 69.5561C318.884 69.5561 316.801 69.2562 315.006 68.6563C313.211 68.0431 311.744 67.2167 310.605 66.1769C309.467 65.1238 308.542 63.8107 307.832 62.2378C307.136 60.6648 306.647 58.9985 306.366 57.2389C306.084 55.4792 305.944 53.4864 305.944 51.2602C305.944 47.9676 306.218 45.1949 306.767 42.942C307.317 40.6892 308.221 38.8096 309.48 37.3033C310.753 35.7836 312.4 34.6838 314.423 34.004C316.459 33.3241 318.984 32.9842 321.998 32.9842C323.847 32.9842 325.508 33.1242 326.981 33.4041C328.455 33.6841 329.734 34.0773 330.819 34.5839C331.917 35.0771 332.868 35.7236 333.672 36.5234C334.489 37.3233 335.152 38.1897 335.661 39.1229C336.184 40.056 336.599 41.1491 336.907 42.4021C337.229 43.6419 337.45 44.9083 337.57 46.2013C337.691 47.4943 337.751 48.954 337.751 50.5803C337.751 51.5268 337.711 52.4799 337.63 53.4397C335.675 53.7996 333.009 54.1529 329.633 54.4995C326.258 54.8461 323.277 55.086 320.692 55.2193L314.805 55.5192C314.885 56.8923 315.119 58.0387 315.508 58.9585C315.91 59.8649 316.486 60.5715 317.236 61.078C317.986 61.5712 318.837 61.9245 319.788 62.1378C320.739 62.3377 321.898 62.4377 323.264 62.4377C326.854 62.4377 331.154 62.1244 336.164 61.4979L336.907 68.1964C331.388 69.1029 326.171 69.5561 321.255 69.5561ZM314.543 49.4406L320.692 49.1406C323.733 48.9807 326.412 48.7474 328.729 48.4408C328.783 48.0809 328.81 47.6077 328.81 47.0211C328.81 44.595 328.287 42.7821 327.242 41.5823C326.197 40.3826 324.449 39.7827 321.998 39.7827C320.712 39.7827 319.614 39.9493 318.703 40.2826C317.792 40.6025 317.068 41.0291 316.533 41.5623C315.997 42.0822 315.575 42.7821 315.267 43.6619C314.972 44.5283 314.778 45.4015 314.684 46.2813C314.59 47.1478 314.543 48.2009 314.543 49.4406Z" fill="#FDFEFF"/>
<path d="M365.078 33.7441V19.7072H374V59.4984C374 61.7245 373.899 63.9774 373.698 66.2569C371.783 67.3633 369.553 68.1898 367.007 68.7363C364.462 69.2829 361.89 69.5561 359.292 69.5561C357.256 69.5561 355.454 69.4295 353.887 69.1762C352.319 68.9229 350.893 68.5097 349.607 67.9365C348.321 67.35 347.229 66.5901 346.332 65.657C345.447 64.7239 344.704 63.5775 344.101 62.2178C343.498 60.8581 343.056 59.2784 342.775 57.4788C342.494 55.6792 342.353 53.6063 342.353 51.2602C342.353 48.5008 342.554 46.1013 342.956 44.0618C343.358 42.0222 343.961 40.2959 344.764 38.8829C345.568 37.4566 346.613 36.3102 347.899 35.4437C349.198 34.5772 350.685 33.9507 352.36 33.5641C354.034 33.1775 355.996 32.9842 358.247 32.9842C360.457 32.9842 362.734 33.2375 365.078 33.7441ZM365.078 40.7625C363.417 40.2426 361.75 39.9827 360.075 39.9827C358.87 39.9827 357.805 40.0893 356.88 40.3026C355.97 40.5026 355.206 40.7558 354.59 41.0624C353.974 41.369 353.451 41.8223 353.023 42.4221C352.607 43.0087 352.286 43.5619 352.058 44.0818C351.844 44.5883 351.676 45.3015 351.556 46.2213C351.435 47.1278 351.362 47.9143 351.335 48.5808C351.321 49.234 351.315 50.1271 351.315 51.2602C351.315 52.26 351.328 53.0864 351.355 53.7396C351.382 54.3928 351.449 55.1593 351.556 56.0391C351.676 56.9056 351.837 57.6254 352.038 58.1986C352.252 58.7585 352.554 59.3451 352.942 59.9583C353.344 60.5581 353.82 61.038 354.369 61.3979C354.918 61.7445 355.608 62.0311 356.438 62.2578C357.282 62.4844 358.233 62.5977 359.292 62.5977C361.636 62.5977 363.491 62.2844 364.857 61.6579C365.005 60.3382 365.078 58.7452 365.078 56.8789V40.7625Z" fill="#FDFEFF"/>
<defs>
<linearGradient id="paint0_linear_121_9826" x1="-1.26385e-05" y1="87.0002" x2="41.3508" y2="23.71" gradientUnits="userSpaceOnUse">
<stop stop-color="#00BBD0"/>
<stop offset="1" stop-color="#2084FF"/>
</linearGradient>
<linearGradient id="paint1_linear_121_9826" x1="-1.26385e-05" y1="87.0002" x2="41.3508" y2="23.71" gradientUnits="userSpaceOnUse">
<stop stop-color="#00BBD0"/>
<stop offset="1" stop-color="#2084FF"/>
</linearGradient>
<linearGradient id="paint2_linear_121_9826" x1="-1.26385e-05" y1="87.0002" x2="41.3508" y2="23.71" gradientUnits="userSpaceOnUse">
<stop stop-color="#00BBD0"/>
<stop offset="1" stop-color="#2084FF"/>
</linearGradient>
</defs>
</svg>
