<svg width="31" height="32" viewBox="0 0 31 32" fill="none" xmlns="http://www.w3.org/2000/svg">
<g id="WhatsApp">
<path id="Vector" fill-rule="evenodd" clip-rule="evenodd" d="M21.3858 18.5494C21.0653 18.3899 19.494 17.6213 19.2015 17.5143C18.9089 17.4083 18.696 17.3559 18.4819 17.6749C18.269 17.9917 17.657 18.7088 17.4709 18.9208C17.2838 19.1338 17.0977 19.1595 16.7783 19.0011C16.4589 18.8405 15.4285 18.5055 14.2078 17.4223C13.2581 16.5788 12.616 15.5373 12.43 15.2184C12.2439 14.9005 12.4095 14.7281 12.5698 14.5697C12.7139 14.4274 12.8892 14.1983 13.0495 14.0131C13.2097 13.8269 13.2624 13.6942 13.3689 13.4812C13.4765 13.2692 13.4227 13.0841 13.342 12.9246C13.2624 12.7651 12.6236 11.1991 12.3568 10.5623C12.0976 9.94252 11.8341 10.0271 11.6384 10.0164C11.4513 10.0078 11.2383 10.0057 11.0253 10.0057C10.8124 10.0057 10.4661 10.0849 10.1735 10.4039C9.87992 10.7218 9.05499 11.4913 9.05499 13.0573C9.05499 14.6222 10.1993 16.1346 10.3596 16.3476C10.5199 16.5595 12.6128 19.7728 15.8189 21.1504C16.5826 21.4779 17.1773 21.6738 17.6409 21.8193C18.4066 22.0623 19.1036 22.0281 19.6543 21.9456C20.2673 21.8547 21.545 21.176 21.8118 20.4332C22.0774 19.6904 22.0774 19.0535 21.9978 18.9208C21.9182 18.788 21.7053 18.7088 21.3848 18.5494H21.3858ZM15.5544 26.4733H15.5501C13.6458 26.4736 11.7765 25.9642 10.138 24.9983L9.75085 24.7693L5.72625 25.8204L6.8007 21.9157L6.54795 21.5153C5.48333 19.8288 4.91993 17.8769 4.92284 15.8852C4.92499 10.0517 9.69385 5.30569 15.5587 5.30569C18.398 5.30569 21.0675 6.40817 23.0744 8.40762C24.0643 9.38869 24.8489 10.5554 25.3828 11.8402C25.9167 13.125 26.1893 14.5024 26.1848 15.8927C26.1827 21.7262 21.4138 26.4733 15.5544 26.4733ZM24.6017 6.88876C23.4166 5.70164 22.0067 4.76037 20.4535 4.11951C18.9003 3.47864 17.2347 3.15091 15.5533 3.15532C8.50432 3.15532 2.76534 8.86573 2.76319 15.8841C2.76212 18.1276 3.35043 20.3176 4.47004 22.2475L2.65564 28.8442L9.43573 27.0738C11.3113 28.0908 13.4131 28.6236 15.549 28.6237H15.5544C22.6033 28.6237 28.3423 22.9132 28.3445 15.8938C28.3497 14.2211 28.0216 12.564 27.3791 11.0183C26.7367 9.4726 25.7926 8.06903 24.6017 6.88876Z" fill="#FDFEFF"/>
</g>
</svg>
